PathFileType	4	(X/Y/Z)	Walk1.trc
DataRate	CameraRate	NumFrames	NumMarkers	Units	OrigDataRate	OrigDataStartFrame	OrigNumFrames
200.000000	200.000000	4	59	mm	200.000000	392	610
Frame#	Times		LFHD		RFHD		CLAV		STRN		LASI		RASI		RACR1		RUA1		RElbow		RElbowM		RFA1		RWRR		RWRU		RCAR		LACR1		LUA1		LElbow		LFA1		LWRR		LWRU		LCAR		RTH2		RTB1		RTB2		LTH1		LTH3		LTH2		LMFC		LTB1		LTB2		LTB4		LMT1		LToe		LLFC		LMT5		RTH3		LTB3		RTB4		RTB3		RMFC		LTH4		RTH4		RToe		RTH1		RMMAL		RLFC		RBHD		RMT1		RCAL		RBack		LMMAL		LLMAL		RPSI		C7		T10		LPSI		LCAL		LBHD		LElbowM
			X1	Y1	Z1	X2	Y2	Z2	X3	Y3	Z3	X4	Y4	Z4	X5	Y5	Z5	X6	Y6	Z6	X7	Y7	Z7	X8	Y8	Z8	X9	Y9	Z9	X10	Y10	Z10	X11	Y11	Z11	X12	Y12	Z12	X13	Y13	Z13	X14	Y14	Z14	X15	Y15	Z15	X16	Y16	Z16	X17	Y17	Z17	X18	Y18	Z18	X19	Y19	Z19	X20	Y20	Z20	X21	Y21	Z21	X22	Y22	Z22	X23	Y23	Z23	X24	Y24	Z24	X25	Y25	Z25	X26	Y26	Z26	X27	Y27	Z27	X28	Y28	Z28	X29	Y29	Z29	X30	Y30	Z30	X31	Y31	Z31	X32	Y32	Z32	X33	Y33	Z33	X34	Y34	Z34	X35	Y35	Z35	X36	Y36	Z36	X37	Y37	Z37	X38	Y38	Z38	X39	Y39	Z39	X40	Y40	Z40	X41	Y41	Z41	X42	Y42	Z42	X43	Y43	Z43	X44	Y44	Z44	X45	Y45	Z45	X46	Y46	Z46	X47	Y47	Z47	X48	Y48	Z48	X49	Y49	Z49	X50	Y50	Z50	X51	Y51	Z51	X52	Y52	Z52	X53	Y53	Z53	X54	Y54	Z54	X55	Y55	Z55	X56	Y56	Z56	X57	Y57	Z57	X58	Y58	Z58	X59	Y59	Z59

392	1.96	358.64	1633.4	82.687	360.61	1629.1	-16.51	376.72	1367.3	42.527	445.38	1209.5	30.922	290.48	957	-147.97	373.1	938.72	208.58	266.25	1446	217.59	216.68	1286.5	335.02	199.26	1138.7	386.12	137.52	1075.7	289.55	200.15	983.28	405.54	195.33	859.68	340.87	189.7	869.61	421.82	203.63	778.29	393.16	248.99	1432	-133.28	245.15	1265	-231.7	280.49	1111.8	-298.47	364.8	1003.9	-309.02	466.62	923.4	-246.04	438.65	888.55	-306.07	522.12	857.51	-279.7	431.23	718.19	220.34	550.2	405.2	146.8	546.51	315.15	201.39	168.51	727.63	-166.16	135.23	560.89	-146.56	209.4	634.87	-147.11	132.07	461.39	11.565	92.507	338.08	-77.35	7.0172	286.68	-105.43	40.037	276.17	-53.595	-74.475	34.365	-12.999	-31.993	24.587	-57.474	92.135	483.76	-139.86	-147.91	36.08	-77.479	430.02	613.1	227.37	-20.764	216.9	-32.288	561.33	319.17	141.98	571.85	233.81	137.18	440.19	497.1	70.836	151.38	645.23	-156.02	386.26	685.86	241.33	733.18	77.059	140.33	340.08	758.19	254.25	559.62	90.913	85.404	462.93	506.16	223.03	217.83	1538.2	-27.208	695.79	57.824	110.05	477.34	39.932	126.81	120.79	1327.1	161.49	-152.88	139.85	63.919	-189.09	146.49	-17.842	84.523	991.68	108.68	181.15	1443.4	49.878	121.94	1129.3	62.67	76.311	1007.9	25.37	-239.48	151.11	45.264	229.92	1551.3	120.62	235.32	1028.6	-213.98
393	1.965	365.82	1633.4	83.971	367.76	1629.2	-15.228	384.11	1367.3	43.752	452.97	1209.7	32.095	298.65	956.96	-146.34	380.72	939.21	209.43	273.6	1445.7	218.88	224.61	1285.8	336.08	207.64	1137.9	386.95	145.73	1074.9	290.56	208.65	982.41	406.26	203.64	858.86	341.5	198.33	868.74	422.51	212.29	777.5	393.77	256.35	1432	-132.1	251.87	1265	-230.44	286.66	1111.6	-297.1	370.62	1003.4	-307.75	472.33	922.59	-245	444.06	887.75	-304.89	527.5	856.51	-278.77	439.1	719.15	220.83	556.97	404.72	146.78	552.31	314.76	201.45	176.28	727.55	-165.89	143.19	560.68	-147.04	217.25	634.77	-147.09	139.9	460.83	10.801	98.909	338.13	-78.334	12.722	287.94	-106.41	45.592	276.92	-54.593	-74.121	34.132	-12.714	-32.423	24.487	-57.253	100	483.75	-140.69	-146.86	37.475	-77.41	438.44	614.07	228.04	-15.907	218.39	-33.344	566.79	318.52	141.92	575.97	233.01	137.07	447.84	498.36	71.398	159.25	645.1	-156.14	394.33	686.63	241.93	734.96	73.024	139.48	347.8	758.77	254.8	561.11	90.326	85.299	471.35	506.86	223.6	225.04	1538.2	-25.947	696.98	54.405	109.55	478.12	40.717	127.08	128.2	1326.9	162.6	-148.92	143.04	62.805	-185.15	150.19	-18.863	91.905	991.61	109.24	188.51	1443.4	51.138	129.2	1129.3	63.103	83.709	1007.6	25.612	-234.92	156.16	44.249	237.19	1551.2	121.97	241.49	1028.6	-212.45
394	1.97	373	1633.5	85.231	374.92	1629.4	-13.97	391.48	1367.5	44.949	460.52	1210	33.25	306.8	957.01	-144.69	388.28	939.83	210.36	280.93	1445.4	220.13	232.55	1285.2	337.11	216.03	1137.1	387.73	154.01	1074.1	291.52	217.22	981.66	406.95	212.08	858.15	342.12	207.06	867.99	423.17	221.09	776.84	394.38	263.73	1432.1	-130.95	258.62	1265	-229.2	292.82	1111.4	-295.7	376.36	1002.9	-306.47	477.9	921.72	-243.96	449.31	886.9	-303.71	532.7	855.4	-277.85	446.89	720.08	221.35	563.58	404.22	146.78	557.91	314.33	201.48	184.2	727.51	-165.65	151.42	560.49	-147.6	225.33	634.74	-147.1	148.06	460.26	9.9592	105.64	338.23	-79.415	18.769	289.27	-107.48	51.501	277.73	-55.692	-73.681	33.923	-12.409	-32.825	24.344	-57.048	108.19	483.74	-141.6	-145.6	39.021	-77.357	446.71	615.01	228.74	-10.693	219.94	-34.499	572.09	317.88	141.85	579.94	232.23	136.92	455.62	499.66	71.834	167.33	644.99	-156.3	402.29	687.39	242.56	736.58	69.25	138.58	355.47	759.37	255.4	562.48	89.803	85.136	479.56	507.44	224.15	232.26	1538.2	-24.714	698.03	51.209	109.02	478.85	41.465	127.32	135.57	1326.7	163.69	-144.56	146.3	61.619	-180.82	153.98	-19.953	99.259	991.58	109.79	195.86	1443.5	52.344	136.43	1129.3	63.528	91.088	1007.3	25.826	-229.91	161.34	43.171	244.46	1551.2	123.29	247.62	1028.6	-210.88
395	1.975	380.17	1633.7	86.463	382.07	1629.6	-12.741	398.83	1367.7	46.115	468.02	1210.3	34.38	314.91	957.13	-143.05	395.77	940.57	211.34	288.25	1445.3	221.33	240.48	1284.7	338.1	224.43	1136.6	388.49	162.36	1073.5	292.43	225.85	981.04	407.62	220.65	857.56	342.72	215.88	867.36	423.8	230.03	776.31	394.97	271.13	1432.4	-129.82	265.39	1265.1	-227.98	298.96	1111.3	-294.28	382.01	1002.3	-305.18	483.35	920.78	-242.93	454.4	886	-302.53	537.72	854.2	-276.94	454.56	720.93	221.91	570.01	403.69	146.76	563.31	313.85	201.46	192.28	727.52	-165.42	159.93	560.33	-148.22	233.62	634.78	-147.14	156.55	459.7	9.0393	112.71	338.36	-80.59	25.168	290.67	-108.63	57.774	278.59	-56.891	-73.127	33.758	-12.095	-33.171	24.151	-56.871	116.7	483.73	-142.6	-144.11	40.725	-77.324	454.77	615.86	229.44	-5.1094	221.55	-35.749	577.22	317.22	141.74	583.76	231.46	136.72	463.47	500.95	72.142	175.64	644.92	-156.51	410.11	688.1	243.22	738.06	65.723	137.62	363.06	759.97	256.03	563.73	89.322	84.896	487.54	507.87	224.67	239.47	1538.3	-23.513	698.96	48.224	108.45	479.55	42.167	127.49	142.93	1326.7	164.74	-139.79	149.63	60.368	-176.1	157.87	-21.107	106.58	991.58	110.35	203.19	1443.7	53.497	143.62	1129.4	63.96	98.449	1007.1	26.031	-224.43	166.63	42.036	251.71	1551.2	124.57	253.71	1028.8	-209.27
